<svg xmlns="http://www.w3.org/2000/svg" width="1920" height="1080" viewBox="0 0 1920 1080">
<rect width="100%" height="100%" fill="#ffffff"/>

<defs>
  <marker id="arrow" markerWidth="14" markerHeight="14" refX="11" refY="5"
          orient="auto" markerUnits="strokeWidth">
    <path d="M0,0 L12,5 L0,10 Z" fill="#64748b"/>
  </marker>
  <filter id="shadow" x="-10%" y="-10%" width="120%" height="130%">
    <feDropShadow dx="0" dy="8" stdDeviation="8" flood-color="#0f172a" flood-opacity="0.12"/>
  </filter>
</defs>
<style>
  text {
    font-family: Microsoft YaHei, Noto Sans CJK SC, SimHei, Arial, sans-serif;
    dominant-baseline: alphabetic;
  }
  .card {
    filter: url(#shadow);
  }
</style>

<rect x="70" y="55" width="1780" height="210" rx="28" fill="#e6f2ff" stroke="#7aa7d9" stroke-width="2" opacity="0.95"/>
<text x="98" y="97" text-anchor="start" font-size="26" font-weight="700" fill="#1f2937">第一层：交互表示层</text>
<rect class="card" x="115" y="130" width="260" height="80" rx="18" fill="#ffffff" stroke="#7aa7d9" stroke-width="2"/>
<text x="245.0" y="153" text-anchor="middle" font-size="17" font-weight="600" fill="#1f2937">用户条件输入</text>
<text x="245.0" y="175" text-anchor="middle" font-size="17" font-weight="500" fill="#1f2937">分数 / 选科 / 专业</text>
<text x="245.0" y="197" text-anchor="middle" font-size="17" font-weight="500" fill="#1f2937">地域 / 预算偏好</text>
<rect class="card" x="455" y="120" width="310" height="100" rx="18" fill="#fff3cf" stroke="#d6a23a" stroke-width="2"/>
<text x="610.0" y="153" text-anchor="middle" font-size="17" font-weight="600" fill="#1f2937">对话与澄清问题</text>
<text x="610.0" y="175" text-anchor="middle" font-size="17" font-weight="500" fill="#1f2937">显式目标与待澄清偏好</text>
<text x="610.0" y="197" text-anchor="middle" font-size="17" font-weight="500" fill="#1f2937">跨轮反馈进入状态</text>
<rect class="card" x="850" y="130" width="290" height="80" rx="18" fill="#ffffff" stroke="#7aa7d9" stroke-width="2"/>
<text x="995.0" y="164" text-anchor="middle" font-size="17" font-weight="600" fill="#1f2937">Interrupt 澄清</text>
<text x="995.0" y="186" text-anchor="middle" font-size="17" font-weight="500" fill="#1f2937">提出 A/B 取舍问题</text>
<rect class="card" x="1225" y="130" width="290" height="80" rx="18" fill="#ffffff" stroke="#7aa7d9" stroke-width="2"/>
<text x="1370.0" y="164" text-anchor="middle" font-size="17" font-weight="600" fill="#1f2937">Resume 反馈</text>
<text x="1370.0" y="186" text-anchor="middle" font-size="17" font-weight="500" fill="#1f2937">接受 / 拒绝 / 犹豫</text>
<rect class="card" x="1585" y="130" width="220" height="80" rx="18" fill="#ffffff" stroke="#7aa7d9" stroke-width="2"/>
<text x="1695.0" y="164" text-anchor="middle" font-size="17" font-weight="600" fill="#1f2937">推荐结果展示</text>
<text x="1695.0" y="186" text-anchor="middle" font-size="17" font-weight="500" fill="#1f2937">候选证据 / 取舍解释</text>
<rect x="70" y="300" width="1780" height="255" rx="28" fill="#e8f7ed" stroke="#67a87b" stroke-width="2" opacity="0.95"/>
<text x="98" y="342" text-anchor="start" font-size="26" font-weight="700" fill="#1f2937">第二层：智能体服务层（LLM 服务边界）</text>
<rect class="card" x="115" y="395" width="240" height="95" rx="18" fill="#ffffff" stroke="#67a87b" stroke-width="2"/>
<text x="235.0" y="427" text-anchor="middle" font-size="16" font-weight="600" fill="#1f2937">语义归一器</text>
<text x="235.0" y="448" text-anchor="middle" font-size="16" font-weight="500" fill="#1f2937">查询重写</text>
<text x="235.0" y="469" text-anchor="middle" font-size="16" font-weight="500" fill="#1f2937">槽位标准化</text>
<rect class="card" x="405" y="395" width="240" height="95" rx="18" fill="#ffffff" stroke="#67a87b" stroke-width="2"/>
<text x="525.0" y="427" text-anchor="middle" font-size="16" font-weight="600" fill="#1f2937">约束解析器</text>
<text x="525.0" y="448" text-anchor="middle" font-size="16" font-weight="500" fill="#1f2937">硬约束锁定</text>
<text x="525.0" y="469" text-anchor="middle" font-size="16" font-weight="500" fill="#1f2937">缺失项识别</text>
<rect class="card" x="695" y="395" width="240" height="95" rx="18" fill="#ffffff" stroke="#67a87b" stroke-width="2"/>
<text x="815.0" y="427" text-anchor="middle" font-size="16" font-weight="600" fill="#1f2937">探针调度器</text>
<text x="815.0" y="448" text-anchor="middle" font-size="16" font-weight="500" fill="#1f2937">选择澄清维度</text>
<text x="815.0" y="469" text-anchor="middle" font-size="16" font-weight="500" fill="#1f2937">编排确定性探针</text>
<rect class="card" x="985" y="395" width="240" height="95" rx="18" fill="#ffffff" stroke="#67a87b" stroke-width="2"/>
<text x="1105.0" y="427" text-anchor="middle" font-size="16" font-weight="600" fill="#1f2937">证据检索器</text>
<text x="1105.0" y="448" text-anchor="middle" font-size="16" font-weight="500" fill="#1f2937">SQL / 本体 / 画像</text>
<text x="1105.0" y="469" text-anchor="middle" font-size="16" font-weight="500" fill="#1f2937">生成事实候选</text>
<rect class="card" x="1275" y="395" width="240" height="95" rx="18" fill="#ffffff" stroke="#67a87b" stroke-width="2"/>
<text x="1395.0" y="427" text-anchor="middle" font-size="16" font-weight="600" fill="#1f2937">对话生成器</text>
<text x="1395.0" y="448" text-anchor="middle" font-size="16" font-weight="500" fill="#1f2937">证据约束提示</text>
<text x="1395.0" y="469" text-anchor="middle" font-size="16" font-weight="500" fill="#1f2937">取舍问题生成</text>
<rect class="card" x="1565" y="395" width="240" height="95" rx="18" fill="#ffffff" stroke="#67a87b" stroke-width="2"/>
<text x="1685.0" y="427" text-anchor="middle" font-size="16" font-weight="600" fill="#1f2937">状态管理器</text>
<text x="1685.0" y="448" text-anchor="middle" font-size="16" font-weight="500" fill="#1f2937">更新权重与方差</text>
<text x="1685.0" y="469" text-anchor="middle" font-size="16" font-weight="500" fill="#1f2937">写回轮次日志</text>
<rect x="70" y="590" width="1780" height="205" rx="28" fill="#fff2df" stroke="#d97938" stroke-width="2" opacity="0.95"/>
<text x="98" y="632" text-anchor="start" font-size="26" font-weight="700" fill="#1f2937">第三层：推荐决策层</text>
<rect class="card" x="185" y="665" width="390" height="90" rx="18" fill="#ffe4c4" stroke="#d97938" stroke-width="2"/>
<text x="380.0" y="693" text-anchor="middle" font-size="17" font-weight="600" fill="#1f2937">非补偿性 SAVF</text>
<text x="380.0" y="715" text-anchor="middle" font-size="17" font-weight="500" fill="#1f2937">单属性价值映射</text>
<text x="380.0" y="737" text-anchor="middle" font-size="17" font-weight="500" fill="#1f2937">底线违约惩罚</text>
<rect class="card" x="765" y="665" width="390" height="90" rx="18" fill="#ffe4c4" stroke="#d97938" stroke-width="2"/>
<text x="960.0" y="693" text-anchor="middle" font-size="17" font-weight="600" fill="#1f2937">UCB 主动澄清</text>
<text x="960.0" y="715" text-anchor="middle" font-size="17" font-weight="500" fill="#1f2937">选择高信息增益维度</text>
<text x="960.0" y="737" text-anchor="middle" font-size="17" font-weight="500" fill="#1f2937">构造帕累托候选对</text>
<rect class="card" x="1345" y="665" width="390" height="90" rx="18" fill="#ffe4c4" stroke="#d97938" stroke-width="2"/>
<text x="1540.0" y="693" text-anchor="middle" font-size="17" font-weight="600" fill="#1f2937">BT/D-S 偏好追踪</text>
<text x="1540.0" y="715" text-anchor="middle" font-size="17" font-weight="500" fill="#1f2937">Bradley-Terry 更新权重</text>
<text x="1540.0" y="737" text-anchor="middle" font-size="17" font-weight="500" fill="#1f2937">犹豫反馈提升不确定性</text>
<rect x="70" y="830" width="1780" height="185" rx="28" fill="#f4f6f8" stroke="#9aa4af" stroke-width="2" opacity="0.95"/>
<text x="98" y="872" text-anchor="start" font-size="26" font-weight="700" fill="#1f2937">第四层：数据证据层</text>
<path class="card" d="M190,923 C190,895 580,895 580,923 L580,952 C580,980 190,980 190,952 Z" fill="#ffffff" stroke="#9aa4af" stroke-width="2"/>
<path d="M190,923 C190,951 580,951 580,923" fill="none" stroke="#9aa4af" stroke-width="2"/>
<text x="385.0" y="940" text-anchor="middle" font-size="17" font-weight="600" fill="#1f2937">招生事实库</text>
<text x="385.0" y="962" text-anchor="middle" font-size="17" font-weight="500" fill="#1f2937">分数 / 位次 / 计划 / 学费</text>
<path class="card" d="M765,923 C765,895 1155,895 1155,923 L1155,952 C1155,980 765,980 765,952 Z" fill="#ffffff" stroke="#9aa4af" stroke-width="2"/>
<path d="M765,923 C765,951 1155,951 1155,923" fill="none" stroke="#9aa4af" stroke-width="2"/>
<text x="960.0" y="940" text-anchor="middle" font-size="17" font-weight="600" fill="#1f2937">层级本体库</text>
<text x="960.0" y="962" text-anchor="middle" font-size="17" font-weight="500" fill="#1f2937">专业树 / 地域树</text>
<path class="card" d="M1340,923 C1340,895 1730,895 1730,923 L1730,952 C1730,980 1340,980 1340,952 Z" fill="#ffffff" stroke="#9aa4af" stroke-width="2"/>
<path d="M1340,923 C1340,951 1730,951 1730,923" fill="none" stroke="#9aa4af" stroke-width="2"/>
<text x="1535.0" y="940" text-anchor="middle" font-size="17" font-weight="600" fill="#1f2937">标准化画像库</text>
<text x="1535.0" y="962" text-anchor="middle" font-size="17" font-weight="500" fill="#1f2937">专业质量 / 就业证据</text>
<path d="M375,170 L455,170" fill="none" stroke="#64748b" stroke-width="3" marker-end="url(#arrow)"/>
<text x="415.0" y="160.0" text-anchor="middle" font-size="17" font-weight="600" fill="#64748b">条件输入</text>
<path d="M765,170 L850,170" fill="none" stroke="#64748b" stroke-width="3" marker-end="url(#arrow)"/>
<text x="807.5" y="160.0" text-anchor="middle" font-size="17" font-weight="600" fill="#64748b">澄清触发</text>
<path d="M1140,170 L1225,170" fill="none" stroke="#64748b" stroke-width="3" marker-end="url(#arrow)"/>
<text x="1182.5" y="160.0" text-anchor="middle" font-size="17" font-weight="600" fill="#64748b">用户反馈</text>
<path d="M1515,170 L1585,170" fill="none" stroke="#64748b" stroke-width="3" marker-end="url(#arrow)"/>
<text x="1550.0" y="160.0" text-anchor="middle" font-size="17" font-weight="600" fill="#64748b">推荐生成</text>
<path d="M355,443 L405,443" fill="none" stroke="#64748b" stroke-width="3" marker-end="url(#arrow)"/>
<path d="M645,443 L695,443" fill="none" stroke="#64748b" stroke-width="3" marker-end="url(#arrow)"/>
<path d="M935,443 L985,443" fill="none" stroke="#64748b" stroke-width="3" marker-end="url(#arrow)"/>
<path d="M1225,443 L1275,443" fill="none" stroke="#64748b" stroke-width="3" marker-end="url(#arrow)"/>
<path d="M1515,443 L1565,443" fill="none" stroke="#64748b" stroke-width="3" marker-end="url(#arrow)"/>
<polyline points="1685,490 1685,535 815,535 815,490" fill="none" stroke="#64748b" stroke-width="3" marker-end="url(#arrow)" stroke-dasharray="9 8"/>
<rect x="700" y="515" width="300" height="30" rx="15" fill="#e8f7ed" stroke="#67a87b" stroke-width="1.2" opacity="0.96"/>
<text x="850.0" y="536" text-anchor="middle" font-size="16" font-weight="700" fill="#64748b">状态回写：偏好与轮次更新</text>
<polyline points="610,220 610,284 90,284 90,443 115,443" fill="none" stroke="#64748b" stroke-width="3" marker-end="url(#arrow)"/>
<rect x="305" y="268" width="125" height="30" rx="15" fill="#e8f7ed" stroke="#67a87b" stroke-width="1.2" opacity="0.96"/>
<text x="367.5" y="289" text-anchor="middle" font-size="16" font-weight="700" fill="#64748b">条件输入</text>
<polyline points="995,395 995,270 995,210" fill="none" stroke="#64748b" stroke-width="3" marker-end="url(#arrow)"/>
<rect x="945" y="272" width="100" height="30" rx="15" fill="#e6f2ff" stroke="#7aa7d9" stroke-width="1.2" opacity="0.96"/>
<text x="995.0" y="293" text-anchor="middle" font-size="16" font-weight="700" fill="#64748b">Interrupt</text>
<polyline points="1370,210 1370,335 1685,335 1685,395" fill="none" stroke="#64748b" stroke-width="3" marker-end="url(#arrow)"/>
<rect x="1628" y="313" width="100" height="30" rx="15" fill="#e6f2ff" stroke="#7aa7d9" stroke-width="1.2" opacity="0.96"/>
<text x="1678.0" y="334" text-anchor="middle" font-size="16" font-weight="700" fill="#64748b">Resume</text>
<polyline points="385,895 385,815 1105,815 1105,490" fill="none" stroke="#64748b" stroke-width="3" marker-end="url(#arrow)"/>
<rect x="1008" y="800" width="145" height="30" rx="15" fill="#f4f6f8" stroke="#9aa4af" stroke-width="1.2" opacity="0.96"/>
<text x="1080.5" y="821" text-anchor="middle" font-size="16" font-weight="700" fill="#64748b">结构化事实</text>
<polyline points="960,895 960,815 235,815 235,490" fill="none" stroke="#64748b" stroke-width="3" marker-end="url(#arrow)"/>
<rect x="182" y="800" width="150" height="30" rx="15" fill="#f4f6f8" stroke="#9aa4af" stroke-width="1.2" opacity="0.96"/>
<text x="257.0" y="821" text-anchor="middle" font-size="16" font-weight="700" fill="#64748b">语义映射</text>
<polyline points="1535,895 1535,815 1105,815 1105,490" fill="none" stroke="#64748b" stroke-width="3" marker-end="url(#arrow)"/>
<rect x="1465" y="800" width="145" height="30" rx="15" fill="#f4f6f8" stroke="#9aa4af" stroke-width="1.2" opacity="0.96"/>
<text x="1537.5" y="821" text-anchor="middle" font-size="16" font-weight="700" fill="#64748b">画像证据</text>
<polyline points="380,665 380,575 1105,575 1105,490" fill="none" stroke="#d97938" stroke-width="3" marker-end="url(#arrow)" stroke-dasharray="9 8"/>
<rect x="995" y="556" width="185" height="30" rx="15" fill="#fff2df" stroke="#d97938" stroke-width="1.2" opacity="0.96"/>
<text x="1087.5" y="577" text-anchor="middle" font-size="16" font-weight="700" fill="#d97938">SAVF 证据信号</text>
<polyline points="960,665 960,575 815,575 815,490" fill="none" stroke="#d97938" stroke-width="3" marker-end="url(#arrow)" stroke-dasharray="9 8"/>
<rect x="735" y="556" width="170" height="30" rx="15" fill="#fff2df" stroke="#d97938" stroke-width="1.2" opacity="0.96"/>
<text x="820.0" y="577" text-anchor="middle" font-size="16" font-weight="700" fill="#d97938">UCB 调度控制</text>
<polyline points="960,665 960,575 1105,575 1105,490" fill="none" stroke="#d97938" stroke-width="3" marker-end="url(#arrow)" stroke-dasharray="9 8"/>
<rect x="1040" y="585" width="205" height="30" rx="15" fill="#fff2df" stroke="#d97938" stroke-width="1.2" opacity="0.96"/>
<text x="1142.5" y="606" text-anchor="middle" font-size="16" font-weight="700" fill="#d97938">候选对分发</text>
<polyline points="1540,665 1540,575 1685,575 1685,490" fill="none" stroke="#d97938" stroke-width="3" marker-end="url(#arrow)" stroke-dasharray="9 8"/>
<rect x="1590" y="556" width="220" height="30" rx="15" fill="#fff2df" stroke="#d97938" stroke-width="1.2" opacity="0.96"/>
<text x="1700.0" y="577" text-anchor="middle" font-size="16" font-weight="700" fill="#d97938">BT/D-S 后验更新</text>
<path d="M575,710 L765,710" fill="none" stroke="#64748b" stroke-width="3" marker-end="url(#arrow)"/>
<text x="670.0" y="700.0" text-anchor="middle" font-size="17" font-weight="600" fill="#64748b">价值映射</text>
<path d="M1155,710 L1345,710" fill="none" stroke="#64748b" stroke-width="3" marker-end="url(#arrow)"/>
<text x="1250.0" y="700.0" text-anchor="middle" font-size="17" font-weight="600" fill="#64748b">成对反馈</text>
</svg>
