<svg xmlns="http://www.w3.org/2000/svg" width="1920" height="1080" viewBox="0 0 1920 1080">
<rect width="100%" height="100%" fill="#ffffff"/>

<defs>
  <marker id="arrow" markerWidth="14" markerHeight="14" refX="11" refY="5"
          orient="auto" markerUnits="strokeWidth">
    <path d="M0,0 L12,5 L0,10 Z" fill="#64748b"/>
  </marker>
  <filter id="shadow" x="-10%" y="-10%" width="120%" height="130%">
    <feDropShadow dx="0" dy="8" stdDeviation="8" flood-color="#0f172a" flood-opacity="0.12"/>
  </filter>
</defs>
<style>
  text {
    font-family: Microsoft YaHei, Noto Sans CJK SC, SimHei, Arial, sans-serif;
    dominant-baseline: alphabetic;
  }
  .card {
    filter: url(#shadow);
  }
</style>

<rect x="80" y="95" width="820" height="820" rx="28" fill="#e6f2ff" stroke="#7aa7d9" stroke-width="2" opacity="0.95"/>
<text x="108" y="137" text-anchor="start" font-size="26" font-weight="700" fill="#1f2937">地理邻近层级</text>
<rect class="card" x="380" y="170" width="220" height="64" rx="18" fill="#ffffff" stroke="#7aa7d9" stroke-width="2"/>
<text x="490.0" y="209" text-anchor="middle" font-size="21" font-weight="600" fill="#1f2937">全国</text>
<rect class="card" x="130" y="315" width="180" height="58" rx="18" fill="#ffffff" stroke="#7aa7d9" stroke-width="2"/>
<text x="220.0" y="350" text-anchor="middle" font-size="19" font-weight="600" fill="#1f2937">华东</text>
<path d="M490,234 L220,315" fill="none" stroke="#64748b" stroke-width="3" marker-end="url(#arrow)"/>
<rect class="card" x="130" y="430" width="180" height="50" rx="13" fill="#ffffff" stroke="#7aa7d9" stroke-width="2"/>
<text x="220.0" y="460" text-anchor="middle" font-size="17" font-weight="600" fill="#1f2937">浙江</text>
<path d="M220,373 L220,430" fill="none" stroke="#64748b" stroke-width="3" marker-end="url(#arrow)"/>
<rect class="card" x="130" y="516" width="180" height="50" rx="13" fill="#ffffff" stroke="#7aa7d9" stroke-width="2"/>
<text x="220.0" y="546" text-anchor="middle" font-size="17" font-weight="600" fill="#1f2937">江苏</text>
<path d="M220,480 L220,516" fill="none" stroke="#64748b" stroke-width="3" marker-end="url(#arrow)"/>
<rect class="card" x="130" y="602" width="180" height="50" rx="13" fill="#ffffff" stroke="#7aa7d9" stroke-width="2"/>
<text x="220.0" y="632" text-anchor="middle" font-size="17" font-weight="600" fill="#1f2937">上海</text>
<path d="M220,566 L220,602" fill="none" stroke="#64748b" stroke-width="3" marker-end="url(#arrow)"/>
<rect class="card" x="130" y="688" width="180" height="50" rx="13" fill="#ffffff" stroke="#7aa7d9" stroke-width="2"/>
<text x="220.0" y="718" text-anchor="middle" font-size="17" font-weight="600" fill="#1f2937">安徽</text>
<path d="M220,652 L220,688" fill="none" stroke="#64748b" stroke-width="3" marker-end="url(#arrow)"/>
<rect class="card" x="400" y="315" width="180" height="58" rx="18" fill="#ffffff" stroke="#7aa7d9" stroke-width="2"/>
<text x="490.0" y="350" text-anchor="middle" font-size="19" font-weight="600" fill="#1f2937">华北</text>
<path d="M490,234 L490,315" fill="none" stroke="#64748b" stroke-width="3" marker-end="url(#arrow)"/>
<rect class="card" x="400" y="430" width="180" height="50" rx="13" fill="#ffffff" stroke="#7aa7d9" stroke-width="2"/>
<text x="490.0" y="460" text-anchor="middle" font-size="17" font-weight="600" fill="#1f2937">北京</text>
<path d="M490,373 L490,430" fill="none" stroke="#64748b" stroke-width="3" marker-end="url(#arrow)"/>
<rect class="card" x="400" y="516" width="180" height="50" rx="13" fill="#ffffff" stroke="#7aa7d9" stroke-width="2"/>
<text x="490.0" y="546" text-anchor="middle" font-size="17" font-weight="600" fill="#1f2937">天津</text>
<path d="M490,480 L490,516" fill="none" stroke="#64748b" stroke-width="3" marker-end="url(#arrow)"/>
<rect class="card" x="400" y="602" width="180" height="50" rx="13" fill="#ffffff" stroke="#7aa7d9" stroke-width="2"/>
<text x="490.0" y="632" text-anchor="middle" font-size="17" font-weight="600" fill="#1f2937">河北</text>
<path d="M490,566 L490,602" fill="none" stroke="#64748b" stroke-width="3" marker-end="url(#arrow)"/>
<rect class="card" x="670" y="315" width="180" height="58" rx="18" fill="#ffffff" stroke="#7aa7d9" stroke-width="2"/>
<text x="760.0" y="350" text-anchor="middle" font-size="19" font-weight="600" fill="#1f2937">华南 / 华中</text>
<path d="M490,234 L760,315" fill="none" stroke="#64748b" stroke-width="3" marker-end="url(#arrow)"/>
<rect class="card" x="670" y="430" width="180" height="50" rx="13" fill="#ffffff" stroke="#7aa7d9" stroke-width="2"/>
<text x="760.0" y="460" text-anchor="middle" font-size="17" font-weight="600" fill="#1f2937">广东</text>
<path d="M760,373 L760,430" fill="none" stroke="#64748b" stroke-width="3" marker-end="url(#arrow)"/>
<rect class="card" x="670" y="516" width="180" height="50" rx="13" fill="#ffffff" stroke="#7aa7d9" stroke-width="2"/>
<text x="760.0" y="546" text-anchor="middle" font-size="17" font-weight="600" fill="#1f2937">湖北</text>
<path d="M760,480 L760,516" fill="none" stroke="#64748b" stroke-width="3" marker-end="url(#arrow)"/>
<rect class="card" x="670" y="602" width="180" height="50" rx="13" fill="#ffffff" stroke="#7aa7d9" stroke-width="2"/>
<text x="760.0" y="632" text-anchor="middle" font-size="17" font-weight="600" fill="#1f2937">湖南</text>
<path d="M760,566 L760,602" fill="none" stroke="#64748b" stroke-width="3" marker-end="url(#arrow)"/>
<rect x="302" y="845" width="376" height="42" rx="21" fill="#ffffff" stroke="#7aa7d9" stroke-width="1.8"/>
<text x="490.0" y="873" text-anchor="middle" font-size="18" font-weight="700" fill="#1f2937">用于表达：别太远 / 江浙沪 / 华东</text>
<rect x="1020" y="95" width="820" height="820" rx="28" fill="#e8f7ed" stroke="#67a87b" stroke-width="2" opacity="0.95"/>
<text x="1048" y="137" text-anchor="start" font-size="26" font-weight="700" fill="#1f2937">城市层级画像</text>
<rect class="card" x="1300" y="170" width="260" height="64" rx="18" fill="#ffffff" stroke="#67a87b" stroke-width="2"/>
<text x="1430.0" y="209" text-anchor="middle" font-size="21" font-weight="600" fill="#1f2937">城市发展层级</text>
<rect class="card" x="1070" y="315" width="180" height="58" rx="18" fill="#ffffff" stroke="#67a87b" stroke-width="2"/>
<text x="1160.0" y="350" text-anchor="middle" font-size="19" font-weight="600" fill="#1f2937">一线城市</text>
<path d="M1430,234 L1160,315" fill="none" stroke="#64748b" stroke-width="3" marker-end="url(#arrow)"/>
<rect class="card" x="1070" y="430" width="180" height="50" rx="13" fill="#ffffff" stroke="#67a87b" stroke-width="2"/>
<text x="1160.0" y="460" text-anchor="middle" font-size="17" font-weight="600" fill="#1f2937">北京</text>
<path d="M1160,373 L1160,430" fill="none" stroke="#64748b" stroke-width="3" marker-end="url(#arrow)"/>
<rect class="card" x="1070" y="516" width="180" height="50" rx="13" fill="#ffffff" stroke="#67a87b" stroke-width="2"/>
<text x="1160.0" y="546" text-anchor="middle" font-size="17" font-weight="600" fill="#1f2937">上海</text>
<path d="M1160,480 L1160,516" fill="none" stroke="#64748b" stroke-width="3" marker-end="url(#arrow)"/>
<rect class="card" x="1070" y="602" width="180" height="50" rx="13" fill="#ffffff" stroke="#67a87b" stroke-width="2"/>
<text x="1160.0" y="632" text-anchor="middle" font-size="17" font-weight="600" fill="#1f2937">广州</text>
<path d="M1160,566 L1160,602" fill="none" stroke="#64748b" stroke-width="3" marker-end="url(#arrow)"/>
<rect class="card" x="1070" y="688" width="180" height="50" rx="13" fill="#ffffff" stroke="#67a87b" stroke-width="2"/>
<text x="1160.0" y="718" text-anchor="middle" font-size="17" font-weight="600" fill="#1f2937">深圳</text>
<path d="M1160,652 L1160,688" fill="none" stroke="#64748b" stroke-width="3" marker-end="url(#arrow)"/>
<rect class="card" x="1340" y="315" width="180" height="58" rx="18" fill="#ffffff" stroke="#67a87b" stroke-width="2"/>
<text x="1430.0" y="350" text-anchor="middle" font-size="19" font-weight="600" fill="#1f2937">新一线城市</text>
<path d="M1430,234 L1430,315" fill="none" stroke="#64748b" stroke-width="3" marker-end="url(#arrow)"/>
<rect class="card" x="1340" y="430" width="180" height="50" rx="13" fill="#ffffff" stroke="#67a87b" stroke-width="2"/>
<text x="1430.0" y="460" text-anchor="middle" font-size="17" font-weight="600" fill="#1f2937">杭州</text>
<path d="M1430,373 L1430,430" fill="none" stroke="#64748b" stroke-width="3" marker-end="url(#arrow)"/>
<rect class="card" x="1340" y="516" width="180" height="50" rx="13" fill="#ffffff" stroke="#67a87b" stroke-width="2"/>
<text x="1430.0" y="546" text-anchor="middle" font-size="17" font-weight="600" fill="#1f2937">成都</text>
<path d="M1430,480 L1430,516" fill="none" stroke="#64748b" stroke-width="3" marker-end="url(#arrow)"/>
<rect class="card" x="1340" y="602" width="180" height="50" rx="13" fill="#ffffff" stroke="#67a87b" stroke-width="2"/>
<text x="1430.0" y="632" text-anchor="middle" font-size="17" font-weight="600" fill="#1f2937">南京</text>
<path d="M1430,566 L1430,602" fill="none" stroke="#64748b" stroke-width="3" marker-end="url(#arrow)"/>
<rect class="card" x="1340" y="688" width="180" height="50" rx="13" fill="#ffffff" stroke="#67a87b" stroke-width="2"/>
<text x="1430.0" y="718" text-anchor="middle" font-size="17" font-weight="600" fill="#1f2937">武汉</text>
<path d="M1430,652 L1430,688" fill="none" stroke="#64748b" stroke-width="3" marker-end="url(#arrow)"/>
<rect class="card" x="1610" y="315" width="180" height="58" rx="18" fill="#ffffff" stroke="#67a87b" stroke-width="2"/>
<text x="1700.0" y="350" text-anchor="middle" font-size="19" font-weight="600" fill="#1f2937">区域中心</text>
<path d="M1430,234 L1700,315" fill="none" stroke="#64748b" stroke-width="3" marker-end="url(#arrow)"/>
<rect class="card" x="1610" y="430" width="180" height="50" rx="13" fill="#ffffff" stroke="#67a87b" stroke-width="2"/>
<text x="1700.0" y="460" text-anchor="middle" font-size="17" font-weight="600" fill="#1f2937">苏州</text>
<path d="M1700,373 L1700,430" fill="none" stroke="#64748b" stroke-width="3" marker-end="url(#arrow)"/>
<rect class="card" x="1610" y="516" width="180" height="50" rx="13" fill="#ffffff" stroke="#67a87b" stroke-width="2"/>
<text x="1700.0" y="546" text-anchor="middle" font-size="17" font-weight="600" fill="#1f2937">宁波</text>
<path d="M1700,480 L1700,516" fill="none" stroke="#64748b" stroke-width="3" marker-end="url(#arrow)"/>
<rect class="card" x="1610" y="602" width="180" height="50" rx="13" fill="#ffffff" stroke="#67a87b" stroke-width="2"/>
<text x="1700.0" y="632" text-anchor="middle" font-size="17" font-weight="600" fill="#1f2937">合肥</text>
<path d="M1700,566 L1700,602" fill="none" stroke="#64748b" stroke-width="3" marker-end="url(#arrow)"/>
<rect class="card" x="1610" y="688" width="180" height="50" rx="13" fill="#ffffff" stroke="#67a87b" stroke-width="2"/>
<text x="1700.0" y="718" text-anchor="middle" font-size="17" font-weight="600" fill="#1f2937">温州</text>
<path d="M1700,652 L1700,688" fill="none" stroke="#64748b" stroke-width="3" marker-end="url(#arrow)"/>
<rect x="1215" y="845" width="430" height="42" rx="21" fill="#ffffff" stroke="#67a87b" stroke-width="1.8"/>
<text x="1430.0" y="873" text-anchor="middle" font-size="18" font-weight="700" fill="#1f2937">用于表达：好城市 / 城市资源 / 发展机会</text>
</svg>
